<?xml version="1.0" standalone="no"?>
<!DOCTYPE svg PUBLIC "-//W3C//DTD SVG 20010904//EN"
 "http://www.w3.org/TR/2001/REC-SVG-20010904/DTD/svg10.dtd">
<svg version="1.0" xmlns="http://www.w3.org/2000/svg"
 width="1600.000000pt" height="1600.000000pt" viewBox="0 0 1600.000000 1600.000000"
 preserveAspectRatio="xMidYMid meet">
<metadata>
Created by potrace 1.14, written by Peter Selinger 2001-2017
</metadata>
<g transform="translate(0.000000,1600.000000) scale(0.100000,-0.100000)"
fill="#000000" stroke="none">
<path d="M7560 13003 c-58 -2 -112 -6 -120 -9 -8 -3 -45 -7 -81 -9 -99 -5
-355 -35 -386 -46 -23 -7 -19 -8 17 -4 339 38 740 51 1090 36 140 -6 302 -13
360 -16 85 -3 94 -2 50 5 -183 29 -670 52 -930 43z"/>
<path d="M8528 12973 c6 -2 18 -2 25 0 6 3 1 5 -13 5 -14 0 -19 -2 -12 -5z"/>
<path d="M8590 12971 c0 -4 48 -12 108 -18 59 -7 157 -19 217 -28 367 -53 432
-61 1000 -115 55 -5 174 -17 264 -25 89 -9 165 -14 167 -12 5 5 -248 39 -716
97 -349 43 -770 89 -880 95 -52 3 -110 8 -127 10 -18 2 -33 0 -33 -4z"/>
<path d="M7375 12952 c-122 -5 -465 -44 -633 -73 -95 -16 -185 -29 -200 -29
-14 0 -53 -6 -86 -14 -34 -8 -106 -21 -161 -31 -298 -50 -424 -76 -710 -147
-159 -39 -245 -58 -360 -83 -33 -7 -87 -20 -120 -29 -32 -9 -72 -16 -88 -16
-28 0 -125 -43 -225 -101 -79 -46 -167 -133 -226 -223 -65 -100 -68 -106 -96
-184 -54 -154 -68 -348 -51 -672 15 -276 17 -387 9 -535 -3 -68 -3 -86 1 -40
7 78 9 74 17 -25 7 -99 6 -98 14 -45 4 28 4 86 -1 130 -9 91 -16 675 -11 895
2 84 9 162 17 185 8 22 18 60 25 85 23 96 60 153 60 94 0 -14 4 -23 10 -19 6
3 10 30 10 59 0 46 4 56 33 82 17 17 50 42 72 57 22 14 71 54 108 87 140 124
297 176 927 306 147 30 563 107 670 124 63 10 169 28 235 38 109 18 252 39
425 63 36 5 142 18 235 29 94 12 174 22 179 24 22 6 -23 11 -79 8z"/>
<path d="M7483 12954 c3 -4 124 -6 269 -5 229 2 622 -17 708 -34 14 -3 32 -1
40 5 12 8 10 10 -10 11 -14 0 -34 2 -44 4 -97 18 -980 35 -963 19z"/>
<path d="M8588 12943 c6 -2 18 -2 25 0 6 3 1 5 -13 5 -14 0 -19 -2 -12 -5z"/>
<path d="M6908 12923 c6 -2 18 -2 25 0 6 3 1 5 -13 5 -14 0 -19 -2 -12 -5z"/>
<path d="M8526 12921 c-8 -12 23 -18 169 -31 66 -6 127 -13 136 -16 15 -4 516
-52 782 -75 65 -6 128 -8 140 -6 13 3 7 5 -15 6 -20 0 -99 10 -175 21 -214 30
-426 54 -758 85 -88 8 -185 17 -217 20 -32 3 -59 2 -62 -4z"/>
<path d="M6823 12913 c9 -2 23 -2 30 0 6 3 -1 5 -18 5 -16 0 -22 -2 -12 -5z"/>
<path d="M6753 12903 c9 -2 25 -2 35 0 9 3 1 5 -18 5 -19 0 -27 -2 -17 -5z"/>
<path d="M6683 12893 c9 -2 23 -2 30 0 6 3 -1 5 -18 5 -16 0 -22 -2 -12 -5z"/>
<path d="M6538 12863 c6 -2 18 -2 25 0 6 3 1 5 -13 5 -14 0 -19 -2 -12 -5z"/>
<path d="M10665 12725 c54 -12 80 -13 125 -5 24 4 -80 18 -135 18 l-50 0 60
-13z"/>
<path d="M5588 12693 c7 -3 16 -2 19 1 4 3 -2 6 -13 5 -11 0 -14 -3 -6 -6z"/>
<path d="M5355 12656 c-124 -27 -233 -58 -217 -64 6 -2 53 8 104 21 51 13 125
30 163 37 39 7 79 16 90 21 38 15 -36 7 -140 -15z"/>
<path d="M11015 12670 c3 -5 11 -10 16 -10 6 0 7 5 4 10 -3 6 -11 10 -16 10
-6 0 -7 -4 -4 -10z"/>
<path d="M11060 12654 c0 -8 112 -56 118 -50 3 3 -20 17 -52 31 -60 26 -66 28
-66 19z"/>
<path d="M10890 12560 c-12 -8 -9 -10 13 -10 15 0 27 5 27 10 0 13 -20 13 -40
0z"/>
<path d="M10793 12543 c9 -2 25 -2 35 0 9 3 1 5 -18 5 -19 0 -27 -2 -17 -5z"/>
<path d="M10935 12540 c-32 -4 9 -7 110 -7 110 0 146 2 115 8 -53 9 -154 9
-225 -1z"/>
<path d="M11330 12516 c0 -8 9 -18 20 -21 11 -4 34 -18 50 -32 28 -23 40 -22
22 2 -9 13 -79 65 -86 65 -3 0 -6 -6 -6 -14z"/>
<path d="M11165 12510 c4 -6 11 -8 16 -5 14 9 11 15 -7 15 -8 0 -12 -5 -9 -10z"/>
<path d="M10790 12503 c-19 -2 -71 -8 -115 -14 -44 -7 -129 -13 -190 -14 -60
-1 -144 -7 -185 -13 -68 -10 -193 -25 -450 -52 -250 -27 -376 -41 -385 -45
-39 -15 496 11 665 32 69 8 141 15 160 15 101 -1 774 73 798 88 16 9 -212 12
-298 3z m-300 -43 c-20 -13 -53 -13 -45 0 3 6 18 10 33 10 21 0 24 -2 12 -10z
m-105 -26 c-27 -7 -54 -12 -60 -10 -14 5 54 24 85 24 15 0 4 -6 -25 -14z"/>
<path d="M9525 12434 c-421 -26 -878 -77 -1205 -134 -159 -28 -162 -29 -154
-41 4 -8 1 -8 -12 -1 -18 9 -171 -18 -324 -57 -25 -7 -54 -14 -65 -15 -39 -7
-230 -59 -245 -67 -30 -17 70 -7 170 17 14 3 54 10 90 14 78 10 358 58 383 66
9 3 17 9 17 14 0 4 8 6 18 3 10 -2 65 5 122 17 103 21 159 28 560 70 107 11
231 24 275 30 273 36 410 53 565 71 96 10 182 21 190 23 33 8 -178 3 -385 -10z"/>
<path d="M11460 12423 c0 -4 27 -37 61 -73 33 -36 68 -78 77 -95 13 -24 17
-27 20 -12 4 19 -29 68 -87 130 -37 40 -71 64 -71 50z"/>
<path d="M9363 12353 c9 -2 25 -2 35 0 9 3 1 5 -18 5 -19 0 -27 -2 -17 -5z"/>
<path d="M4940 12228 c0 -17 51 -20 530 -38 254 -9 463 -31 720 -75 99 -17
214 -28 517 -50 35 -3 74 -7 88 -11 14 -4 32 -1 40 6 12 10 16 9 21 -3 3 -9
23 -18 45 -22 21 -4 39 -10 39 -15 0 -4 -19 -4 -42 1 -57 11 -78 11 -78 0 0
-5 28 -13 63 -18 l62 -8 57 45 c46 36 54 46 40 52 -46 19 -753 99 -1142 128
-74 6 -321 14 -547 17 -363 5 -413 4 -413 -9z"/>
<path d="M11655 12183 c4 -10 15 -40 25 -68 10 -27 37 -97 60 -155 23 -58 47
-122 53 -142 6 -21 15 -38 20 -38 4 0 6 -4 3 -8 -3 -4 1 -42 9 -83 l13 -74 1
77 c1 44 -3 80 -10 83 -5 4 -8 12 -6 18 7 22 -88 282 -131 359 -26 46 -52 67
-37 31z"/>
<path d="M5763 12153 c9 -2 25 -2 35 0 9 3 1 5 -18 5 -19 0 -27 -2 -17 -5z"/>
<path d="M7415 12070 c-82 -16 -156 -29 -162 -29 -7 -1 -13 -7 -13 -15 0 -8
-15 -17 -35 -20 -19 -4 -40 -15 -47 -25 -7 -10 -32 -30 -55 -46 -47 -30 -52
-40 -27 -49 9 -4 15 -9 12 -12 -3 -2 -17 0 -30 5 -19 7 -31 6 -47 -6 -21 -14
-21 -16 -4 -29 16 -12 15 -13 -18 -14 -39 0 -58 -19 -99 -100 -19 -38 -24 -42
-30 -26 -6 17 -11 13 -38 -26 -52 -76 -99 -179 -116 -255 -24 -108 -18 -128
12 -43 15 41 42 102 61 134 18 33 39 81 47 107 15 48 43 85 31 40 -4 -15 22 4
81 61 149 143 333 246 587 328 72 23 132 44 134 46 13 12 -113 -1 -244 -26z"/>
<path d="M7079 12078 c-8 -7 -33 -26 -56 -42 -24 -16 -43 -33 -43 -37 0 -12
121 -11 139 0 7 5 11 13 7 19 -7 12 8 18 68 27 25 4 46 12 46 17 0 5 -8 7 -17
4 -10 -3 -40 -8 -68 -11 -49 -6 -50 -5 -20 9 26 12 27 14 8 15 -12 1 -28 4
-36 7 -8 3 -21 -1 -28 -8z"/>
<path d="M6543 12053 c9 -2 25 -2 35 0 9 3 1 5 -18 5 -19 0 -27 -2 -17 -5z"/>
<path d="M6621 12046 c11 -9 69 -14 69 -6 0 6 -16 10 -37 10 -20 0 -34 -2 -32
-4z"/>
<path d="M4526 12023 c-4 -9 -2 -21 4 -27 7 -7 10 -2 10 17 0 31 -5 34 -14 10z"/>
<path d="M6720 12030 c20 -13 70 -13 70 0 0 6 -19 10 -42 10 -32 0 -39 -3 -28
-10z"/>
<path d="M4563 12015 c-3 -9 -3 -18 -1 -21 3 -3 8 4 11 16 6 23 -1 27 -10 5z"/>
<path d="M4556 11939 c-11 -35 -15 -87 -7 -119 6 -31 8 -25 14 44 7 74 3 107
-7 75z"/>
<path d="M4518 11775 c-1 -67 2 -244 7 -380 2 -49 -7 -255 -20 -457 -13 -202
-20 -379 -16 -394 5 -18 10 8 19 87 18 177 22 247 27 494 3 127 8 247 11 268
4 25 1 43 -8 54 -8 11 -9 18 -2 20 13 4 6 343 -7 358 -5 5 -10 -15 -11 -50z"/>
<path d="M11796 11689 c3 -32 9 -70 14 -85 7 -21 8 -12 3 31 -3 32 -10 71 -14
85 -6 16 -7 6 -3 -31z"/>
<path d="M11573 11600 c0 -30 2 -43 4 -27 2 15 2 39 0 55 -2 15 -4 2 -4 -28z"/>
<path d="M11840 11583 c0 -10 10 -218 22 -463 18 -376 21 -568 21 -1235 l-1
-790 21 290 c29 398 31 1564 3 1880 -19 226 -35 326 -53 333 -7 2 -13 -4 -13
-15z"/>
<path d="M11577 11045 c-3 -264 -14 -714 -25 -1000 -18 -534 -19 -656 -7 -902
6 -112 10 -143 21 -143 12 0 14 57 14 348 0 191 7 491 15 667 23 522 28 878
15 1140 -20 416 -25 396 -33 -110z"/>
<path d="M7898 11193 c-10 -2 -18 -8 -18 -13 0 -5 14 -4 30 1 45 16 36 25 -12
12z"/>
<path d="M7963 11188 c-25 -8 -33 -17 -33 -34 0 -27 -11 -30 -39 -12 -27 17
-51 -5 -51 -48 0 -27 8 -39 40 -65 22 -18 37 -36 34 -41 -3 -5 -1 -14 4 -21
42 -52 142 -296 142 -348 0 -10 5 -21 10 -24 6 -3 10 0 10 7 0 26 27 -29 50
-102 24 -74 24 -79 27 -590 2 -494 -9 -904 -27 -1020 -8 -49 -4 127 5 250 2
19 6 132 10 250 7 176 5 236 -9 330 -9 63 -17 129 -19 145 -1 17 -6 -71 -10
-195 -13 -411 -39 -769 -62 -855 -19 -74 -65 -170 -101 -210 -45 -51 -71 -89
-79 -112 -8 -30 9 -30 55 -1 37 23 70 30 70 16 0 -4 -5 -8 -12 -8 -6 0 -9 -3
-5 -6 9 -9 133 35 147 52 7 8 18 14 25 14 20 0 78 71 67 82 -6 6 1 39 19 91
52 153 87 282 119 437 17 85 36 171 42 191 7 26 6 106 -3 270 -7 129 -12 261
-10 294 8 189 4 590 -8 670 -27 199 -78 352 -146 445 -19 26 -35 52 -35 56 0
12 41 -34 68 -76 12 -19 22 -28 22 -20 0 22 -72 130 -87 130 -6 0 -16 6 -20
13 -4 7 -21 23 -37 35 -32 24 -113 29 -173 10z m187 -123 c0 -5 -9 4 -20 20
-11 17 -20 35 -20 40 0 6 9 -3 20 -20 11 -16 20 -34 20 -40z m-180 -100 c13
-14 21 -25 18 -25 -2 0 -15 11 -28 25 -13 14 -21 25 -18 25 2 0 15 -11 28 -25z
m97 -227 c-3 -8 -6 -5 -6 6 -1 11 2 17 5 13 3 -3 4 -12 1 -19z m188 -203 c16
-85 29 -243 20 -233 -12 12 -44 152 -55 243 -6 50 -13 104 -15 120 -10 63 36
-59 50 -130z m52 103 c-3 -7 -5 -2 -5 12 0 14 2 19 5 13 2 -7 2 -19 0 -25z
m10 -50 c-3 -8 -6 -5 -6 6 -1 11 2 17 5 13 3 -3 4 -12 1 -19z m33 -167 c0 -45
-6 -37 -13 18 -4 29 -2 40 4 30 5 -7 9 -29 9 -48z m7 -108 c-3 -10 -5 -2 -5
17 0 19 2 27 5 18 2 -10 2 -26 0 -35z m10 -270 c-2 -32 -3 -6 -3 57 0 63 1 89
3 58 2 -32 2 -84 0 -115z m-250 -1295 c-2 -18 -4 -6 -4 27 0 33 2 48 4 33 2
-15 2 -42 0 -60z m-23 -157 c17 -19 17 -20 -13 -36 -17 -8 -42 -20 -57 -25
-24 -9 -23 -7 13 35 21 24 38 44 39 45 0 0 9 -9 18 -19z"/>
<path d="M7797 11033 c23 -16 58 -43 77 -61 41 -37 46 -34 16 9 -27 36 -68 66
-106 74 -27 6 -26 5 13 -22z"/>
<path d="M6680 10985 c-10 -12 -11 -400 -6 -1928 4 -1051 11 -2020 15 -2152
15 -414 6 -2473 -13 -3030 -13 -384 -15 -533 -7 -690 20 -382 61 -610 150
-824 47 -116 69 -126 31 -15 -24 68 -56 213 -65 294 -3 30 -15 114 -25 185
-39 266 -45 431 -45 1420 0 523 6 1569 14 2325 13 1317 12 1813 -9 2447 -29
868 -31 1328 -11 1713 7 124 14 235 17 248 3 17 0 22 -15 22 -10 0 -24 -7 -31
-15z"/>
<path d="M6730 10843 c-28 -320 -27 -1489 1 -1537 6 -10 7 -22 2 -27 -8 -8 -4
-132 14 -514 8 -164 8 -157 14 215 8 525 10 1975 3 1994 -14 37 -22 8 -34
-131z"/>
<path d="M8044 10570 c3 -30 11 -98 17 -150 6 -52 17 -169 24 -260 l14 -165
-4 178 c-3 114 -12 226 -26 310 -21 134 -37 188 -25 87z"/>
<path d="M4466 10322 c-4 -81 -10 -165 -14 -187 l-7 -40 -6 55 c-5 50 -13
-580 -14 -1108 0 -196 6 -260 20 -200 4 19 13 485 15 778 0 36 4 88 9 115 8
39 10 10 9 -130 -2 -284 0 -312 18 -319 13 -5 15 -1 9 21 -4 16 -7 281 -7 590
0 457 -2 562 -13 567 -10 4 -14 -26 -19 -142z m1 -419 c-2 -21 -4 -6 -4 32 0
39 2 55 4 38 2 -18 2 -50 0 -70z"/>
<path d="M8041 10212 c-1 -166 23 -539 35 -551 8 -9 4 325 -7 490 -16 263 -27
286 -28 61z"/>
<path d="M8399 10095 c-1 -121 -3 -233 -5 -250 -2 -16 4 -86 13 -155 10 -74
16 -201 17 -310 0 -161 -3 -203 -27 -329 -15 -79 -26 -148 -24 -154 2 -6 17
32 34 84 27 83 47 170 68 303 4 21 6 137 6 256 0 219 -32 561 -66 715 -12 57
-13 49 -16 -160z"/>
<path d="M11862 9620 c0 -14 2 -19 5 -12 2 6 2 18 0 25 -3 6 -5 1 -5 -13z"/>
<path d="M4392 9375 c-1 -77 -5 -243 -8 -370 -5 -172 -4 -227 5 -219 8 7 10
111 8 370 -1 197 -3 296 -5 219z"/>
<path d="M4496 9198 c-12 -77 -17 -275 -7 -253 8 17 10 15 10 -12 1 -18 5 -33
10 -33 8 0 4 328 -4 338 -2 2 -6 -16 -9 -40z"/>
<path d="M11905 9188 c-7 -23 -15 -324 -20 -773 -3 -242 -10 -552 -15 -688
-13 -314 -13 -437 0 -437 5 0 11 15 14 33 5 33 12 411 21 1142 3 231 8 491 11
578 5 139 2 184 -11 145z"/>
<path d="M8372 9090 c0 -14 2 -19 5 -12 2 6 2 18 0 25 -3 6 -5 1 -5 -13z"/>
<path d="M8362 9040 c0 -14 2 -19 5 -12 2 6 2 18 0 25 -3 6 -5 1 -5 -13z"/>
<path d="M11853 8940 c0 -25 2 -35 4 -22 2 12 2 32 0 45 -2 12 -4 2 -4 -23z"/>
<path d="M8345 8938 c-9 -13 -23 -48 -31 -78 -8 -30 -20 -68 -26 -83 -6 -15
-8 -30 -5 -33 7 -7 38 51 48 91 4 17 14 51 23 78 17 52 15 58 -9 25z"/>
<path d="M4509 8886 c-9 -9 0 -789 9 -798 16 -16 23 313 12 562 -6 129 -12
235 -14 237 -1 2 -5 1 -7 -1z"/>
<path d="M11853 8810 c0 -47 2 -66 4 -42 2 23 2 61 0 85 -2 23 -4 4 -4 -43z"/>
<path d="M4426 8788 c-10 -40 -7 -1772 4 -1788 6 -10 10 206 10 620 0 349 3
760 7 913 4 185 2 277 -4 277 -6 0 -13 -10 -17 -22z"/>
<path d="M4376 8618 c-11 -290 -16 -1539 -6 -1559 6 -10 7 -19 3 -19 -5 0 -8
-682 -8 -1514 0 -1199 3 -1518 13 -1527 6 -7 12 -24 12 -39 0 -14 7 -47 14
-75 13 -45 14 -25 9 205 -3 140 -10 257 -15 258 -4 2 -5 8 -2 14 20 32 24
1673 6 2253 -13 411 -17 1801 -6 2018 5 86 4 127 -3 127 -7 0 -13 -54 -17
-142z"/>
<path d="M11813 8699 c-33 -10 -46 -39 -18 -39 8 0 15 -7 15 -15 0 -8 7 -15
15 -15 7 0 19 -8 24 -17 8 -14 10 -4 11 40 0 31 -3 57 -7 56 -5 0 -23 -5 -40
-10z"/>
<path d="M11680 8659 c-36 -10 -87 -27 -115 -38 -62 -24 -130 -44 -215 -66
-36 -9 -96 -25 -135 -35 -127 -35 -307 -78 -490 -115 -99 -20 -183 -39 -187
-42 -4 -2 -76 -22 -160 -44 -197 -52 -233 -62 -348 -93 -142 -39 -743 -191
-835 -211 -44 -10 -141 -35 -215 -56 -181 -51 -367 -92 -585 -129 -144 -25
-222 -32 -387 -37 -165 -5 -206 -9 -198 -19 8 -8 7 -14 -2 -17 -7 -3 0 -6 15
-6 16 -1 26 3 23 8 -3 4 79 11 182 15 103 3 221 8 262 11 138 9 539 71 690
106 47 11 126 29 175 41 223 51 770 196 1130 298 92 26 314 80 490 120 77 17
198 45 268 61 79 18 142 28 165 25 31 -5 33 -4 12 4 -21 8 -19 9 14 5 73 -8
327 65 453 130 70 37 100 69 83 90 -15 18 -9 18 -90 -6z m-226 -148 c3 -5 -4
-11 -16 -14 -25 -7 -33 -3 -23 12 8 13 32 14 39 2z m-127 -37 c-3 -3 -12 -4
-19 -1 -8 3 -5 6 6 6 11 1 17 -2 13 -5z m-40 -10 c-3 -3 -12 -4 -19 -1 -8 3
-5 6 6 6 11 1 17 -2 13 -5z"/>
<path d="M11836 8245 c-19 -1007 -19 -1011 -5 -998 10 10 15 113 20 460 10
622 10 873 0 873 -4 0 -11 -151 -15 -335z"/>
<path d="M9898 8213 c6 -2 18 -2 25 0 6 3 1 5 -13 5 -14 0 -19 -2 -12 -5z"/>
<path d="M9835 8200 c-8 -13 15 -13 35 0 12 8 11 10 -7 10 -12 0 -25 -4 -28
-10z"/>
<path d="M9758 8173 c7 -3 16 -2 19 1 4 3 -2 6 -13 5 -11 0 -14 -3 -6 -6z"/>
<path d="M4521 7994 c0 -11 3 -14 6 -6 3 7 2 16 -1 19 -3 4 -6 -2 -5 -13z"/>
<path d="M4498 7967 c-5 -10 -8 -51 -7 -90 1 -71 1 -71 10 -27 11 53 8 145 -3
117z"/>
<path d="M4521 7954 c0 -11 3 -14 6 -6 3 7 2 16 -1 19 -3 4 -6 -2 -5 -13z"/>
<path d="M4523 7840 c0 -41 2 -58 4 -37 2 20 2 54 0 75 -2 20 -4 3 -4 -38z"/>
<path d="M8708 7823 c7 -3 16 -2 19 1 4 3 -2 6 -13 5 -11 0 -14 -3 -6 -6z"/>
<path d="M7491 7806 c18 -11 68 -17 160 -20 l134 -5 -115 13 c-63 7 -135 16
-160 20 -44 6 -44 6 -19 -8z"/>
<path d="M8480 7793 c-63 -7 -135 -16 -159 -19 -25 -3 -40 -9 -35 -14 10 -10
286 25 319 40 25 11 18 10 -125 -7z"/>
<path d="M4482 7750 c0 -19 2 -27 5 -17 2 9 2 25 0 35 -3 9 -5 1 -5 -18z"/>
<path d="M8070 7758 c-90 -4 -171 -9 -180 -12 -27 -7 294 -5 335 2 74 14 11
18 -155 10z"/>
<path d="M4522 7518 c-1 -36 -5 -75 -8 -85 -5 -17 -5 -17 6 -1 6 11 9 46 7 85
l-3 68 -2 -67z"/>
<path d="M6657 7320 c-10 -238 -18 -3492 -9 -3570 6 -47 10 24 15 255 4 176
10 343 12 370 10 101 5 2259 -4 2268 -6 6 -6 16 0 26 6 10 7 159 2 416 -8 372
-9 389 -16 235z"/>
<path d="M4518 7317 c-5 -10 -7 -107 -7 -215 2 -183 2 -190 10 -102 10 110 8
344 -3 317z"/>
<path d="M11866 7265 c-7 -20 -9 -795 -1 -803 3 -3 5 64 5 149 0 85 2 215 4
289 11 351 10 411 -8 365z"/>
<path d="M11816 7048 c-12 -397 -14 -552 -7 -528 4 14 11 120 15 235 3 116 9
270 13 343 4 89 3 132 -4 132 -7 0 -13 -66 -17 -182z"/>
<path d="M11612 7070 c0 -19 2 -27 5 -17 2 9 2 25 0 35 -3 9 -5 1 -5 -18z"/>
<path d="M11610 6959 c0 -30 -7 -232 -15 -449 -8 -217 -19 -521 -25 -675 -5
-154 -10 -590 -10 -970 0 -640 -10 -1126 -26 -1224 -4 -24 -3 -41 3 -41 43 0
87 473 79 840 -17 803 -18 1029 -3 1750 9 421 15 775 13 787 -5 46 -16 34 -16
-18z"/>
<path d="M4424 6233 c10 -1143 10 -1483 1 -1668 l-7 -170 21 19 c24 22 26 18
10 -18 -7 -14 -16 -23 -20 -20 -5 3 -8 -55 -7 -128 l2 -133 6 125 c8 196 22
111 22 -139 0 -163 3 -209 11 -186 7 19 10 228 11 595 0 311 3 547 6 525 5
-27 8 -7 8 65 1 71 -1 100 -8 90 -5 -8 -11 -24 -12 -35 -7 -77 -14 202 -17
665 -2 300 -4 559 -6 575 -1 17 -3 155 -4 308 -1 194 -4 277 -12 277 -8 0 -9
-208 -5 -747z"/>
<path d="M7935 6900 c-17 -7 -16 -9 10 -9 17 0 37 4 45 9 12 8 10 10 -10 9
-14 0 -34 -4 -45 -9z"/>
<path d="M4511 6350 c0 -305 4 -564 9 -575 5 -12 8 214 8 542 0 309 -5 567 -9
575 -5 7 -8 -237 -8 -542z"/>
<path d="M8040 6892 c0 -4 28 -14 62 -22 50 -12 63 -19 63 -34 0 -11 6 -21 13
-23 13 -5 16 15 4 34 -18 28 -142 68 -142 45z"/>
<path d="M4463 6840 c0 -25 2 -35 4 -22 2 12 2 32 0 45 -2 12 -4 2 -4 -23z"/>
<path d="M7854 6855 c-16 -12 -16 -14 -3 -15 9 0 22 7 29 15 16 19 0 19 -26 0z"/>
<path d="M7931 6859 c-48 -19 -82 -50 -76 -70 3 -10 7 -55 9 -100 2 -44 7 -84
12 -87 10 -7 28 -74 40 -147 4 -22 10 -44 14 -50 4 -5 11 -55 14 -109 7 -100
17 -136 38 -136 9 0 9 -3 0 -12 -13 -13 -16 -51 -5 -62 4 -4 8 -17 8 -29 3
-64 6 -77 14 -77 5 0 13 9 16 20 3 11 10 20 15 20 5 0 4 -13 -1 -30 -6 -16
-15 -27 -20 -24 -5 3 -9 -12 -8 -33 0 -29 2 -33 8 -18 6 16 25 -309 21 -365 0
-8 -5 -132 -9 -275 -15 -446 -15 -723 -1 -810 15 -96 8 -338 -13 -470 -8 -49
-21 -133 -27 -185 -13 -100 -51 -237 -58 -207 -5 23 -19 22 -32 -3 -14 -26 -3
-45 16 -29 18 15 18 2 0 -33 -14 -26 -13 -26 4 -15 30 18 36 -1 7 -23 -23 -18
-25 -24 -15 -45 23 -51 91 -52 157 -3 13 10 31 18 40 18 72 0 212 139 227 224
2 12 6 34 10 50 4 18 3 27 -3 23 -15 -9 -23 137 -25 447 0 161 -4 253 -9 226
-10 -62 -1 199 18 520 9 163 13 320 9 408 -4 92 -3 142 4 142 11 0 13 33 4 79
-4 17 -10 28 -15 25 -5 -3 -8 16 -8 43 1 26 4 39 7 28 3 -14 9 -3 18 35 35
151 -39 803 -79 688 -2 -7 -7 25 -11 71 -7 82 -9 85 -48 120 -23 21 -54 66
-75 107 -19 39 -48 84 -64 100 -16 15 -29 33 -29 40 0 24 -54 31 -99 13z m56
-391 c-3 -8 -6 -5 -6 6 -1 11 2 17 5 13 3 -3 4 -12 1 -19z m20 -140 c-3 -8 -6
-5 -6 6 -1 11 2 17 5 13 3 -3 4 -12 1 -19z m12 -115 c-1 -65 -5 -61 -12 10 -2
26 -1 47 4 47 5 0 9 -26 8 -57z m248 35 c-3 -8 -6 -5 -6 6 -1 11 2 17 5 13 3
-3 4 -12 1 -19z m10 -135 c-2 -16 -4 -5 -4 22 0 28 2 40 4 28 2 -13 2 -35 0
-50z m-247 -12 c0 -6 -4 -13 -10 -16 -5 -3 -10 1 -10 9 0 9 5 16 10 16 6 0 10
-4 10 -9z m277 -318 c-2 -16 -4 -5 -4 22 0 28 2 40 4 28 2 -13 2 -35 0 -50z
m-260 -390 c-2 -21 -4 -6 -4 32 0 39 2 55 4 38 2 -18 2 -50 0 -70z m10 -190
c-2 -16 -4 -3 -4 27 0 30 2 43 4 28 2 -16 2 -40 0 -55z m10 -945 c-2 -13 -4
-3 -4 22 0 25 2 35 4 23 2 -13 2 -33 0 -45z m210 -150 c-2 -35 -3 -9 -3 57 0
66 1 94 3 63 2 -32 2 -86 0 -120z m-220 -155 c-2 -21 -4 -6 -4 32 0 39 2 55 4
38 2 -18 2 -50 0 -70z m210 -5 c-3 -8 -6 -5 -6 6 -1 11 2 17 5 13 3 -3 4 -12
1 -19z m-220 -110 c-2 -13 -4 -5 -4 17 -1 22 1 32 4 23 2 -10 2 -28 0 -40z
m116 -305 c-18 -29 -33 -43 -46 -43 -4 0 6 20 23 44 16 25 31 53 31 63 1 10 4
6 6 -9 2 -15 -4 -39 -14 -55z m-199 42 c-9 -14 -18 -25 -21 -25 -5 0 5 18 20
38 17 22 18 13 1 -13z"/>
<path d="M8100 6826 c0 -2 7 -7 16 -10 8 -3 12 -2 9 4 -6 10 -25 14 -25 6z"/>
<path d="M8211 6790 c1 -42 18 -92 30 -84 16 10 9 71 -10 95 l-20 24 0 -35z"/>
<path d="M4458 6599 c-2 -72 0 -133 5 -136 4 -2 7 57 7 131 0 75 -2 136 -4
136 -3 0 -6 -59 -8 -131z"/>
<path d="M11831 6560 c-1 -52 -4 -140 -6 -195 -22 -435 -27 -608 -30 -1185 -3
-360 -7 -749 -10 -865 -14 -595 -15 -719 -6 -700 5 11 10 83 10 159 1 103 4
137 12 129 8 -8 10 -46 7 -112 -2 -56 0 -101 5 -101 4 0 7 6 6 13 -2 6 0 26 4
42 20 88 44 465 40 625 -2 47 -7 172 -13 279 -6 117 -7 532 -4 1045 4 537 2
871 -4 906 -10 55 -10 54 -11 -40z"/>
<path d="M8271 6478 c0 -7 4 -22 9 -33 7 -17 9 -15 9 13 1 17 -3 32 -9 32 -5
0 -10 -6 -9 -12z"/>
<path d="M8337 6235 c3 -49 7 -92 9 -94 7 -8 3 93 -6 139 -6 32 -7 20 -3 -45z"/>
<path d="M8372 5860 c0 -14 2 -19 5 -12 2 6 2 18 0 25 -3 6 -5 1 -5 -13z"/>
<path d="M7974 5786 c3 -43 7 -163 8 -265 1 -186 1 -186 9 -76 10 125 1 382
-13 405 -6 10 -7 -13 -4 -64z"/>
<path d="M8378 5630 c-16 -79 -24 -474 -20 -880 5 -358 18 -314 30 99 9 320 2
845 -10 781z"/>
<path d="M4512 5570 c-1 -19 -5 -53 -8 -75 -5 -31 -4 -37 5 -29 8 7 11 34 8
75 -2 35 -4 48 -5 29z"/>
<path d="M8012 5560 c0 -14 2 -19 5 -12 2 6 2 18 0 25 -3 6 -5 1 -5 -13z"/>
<path d="M4593 5410 c0 -25 2 -35 4 -22 2 12 2 32 0 45 -2 12 -4 2 -4 -23z"/>
<path d="M4487 5385 c-4 -22 -6 -60 -6 -85 1 -35 4 -28 10 30 10 81 7 120 -4
55z"/>
<path d="M7984 4975 c0 -55 1 -76 3 -47 2 29 2 74 0 100 -2 26 -3 2 -3 -53z"/>
<path d="M11774 4800 c0 -129 2 -182 3 -117 2 64 2 170 0 235 -1 64 -3 11 -3
-118z"/>
<path d="M8327 4740 c-9 -181 -7 -477 3 -550 l7 -55 2 50 c9 310 11 489 4 585
l-8 115 -8 -145z"/>
<path d="M4572 4730 c0 -19 2 -27 5 -17 2 9 2 25 0 35 -3 9 -5 1 -5 -18z"/>
<path d="M7972 4655 c0 -16 2 -22 5 -12 2 9 2 23 0 30 -3 6 -5 -1 -5 -18z"/>
<path d="M4503 4530 c0 -30 2 -43 4 -27 2 15 2 39 0 55 -2 15 -4 2 -4 -28z"/>
<path d="M7986 4453 c-10 -53 -40 -700 -32 -692 14 14 35 267 40 482 2 130 3
237 1 237 -2 0 -6 -12 -9 -27z"/>
<path d="M4501 4340 c0 -69 3 -131 8 -139 12 -18 13 183 2 229 -7 26 -9 3 -10
-90z"/>
<path d="M7953 4380 c0 -30 2 -43 4 -27 2 15 2 39 0 55 -2 15 -4 2 -4 -28z"/>
<path d="M4642 4155 c0 -16 2 -22 5 -12 2 9 2 23 0 30 -3 6 -5 -1 -5 -18z"/>
<path d="M4692 4150 c0 -19 2 -27 5 -17 2 9 2 25 0 35 -3 9 -5 1 -5 -18z"/>
<path d="M4641 4024 c0 -11 3 -14 6 -6 3 7 2 16 -1 19 -3 4 -6 -2 -5 -13z"/>
<path d="M4782 3900 c0 -14 2 -19 5 -12 2 6 2 18 0 25 -3 6 -5 1 -5 -13z"/>
<path d="M4390 3734 c0 -16 7 -39 15 -50 15 -18 16 -17 9 16 -10 52 -23 72
-24 34z"/>
<path d="M4692 3735 c0 -16 2 -22 5 -12 2 9 2 23 0 30 -3 6 -5 -1 -5 -18z"/>
<path d="M7910 3649 c0 -5 5 -7 10 -4 6 3 10 8 10 11 0 2 -4 4 -10 4 -5 0 -10
-5 -10 -11z"/>
<path d="M4713 3600 c0 -25 2 -35 4 -22 2 12 2 32 0 45 -2 12 -4 2 -4 -23z"/>
<path d="M4841 3604 c0 -11 3 -14 6 -6 3 7 2 16 -1 19 -3 4 -6 -2 -5 -13z"/>
<path d="M11735 3594 c-45 -217 -135 -388 -256 -486 -33 -27 -83 -49 -194 -86
-342 -114 -500 -172 -470 -172 6 0 26 5 45 10 372 99 453 125 570 186 154 79
254 193 304 345 19 60 24 91 21 148 -4 80 -11 99 -20 55z"/>
<path d="M7856 3545 c-22 -34 -16 -41 15 -16 18 14 21 23 13 31 -8 8 -16 4
-28 -15z"/>
<path d="M4450 3490 c0 -22 37 -101 64 -135 23 -30 19 -14 -14 57 -16 34 -30
68 -30 75 0 6 -4 15 -10 18 -5 3 -10 -3 -10 -15z"/>
<path d="M4718 3497 c-5 -10 -8 -33 -7 -50 0 -31 1 -31 10 -7 5 13 9 36 7 50
-3 21 -4 22 -10 7z"/>
<path d="M4835 3457 c-4 -13 -2 -45 3 -72 l10 -50 1 73 c1 73 -4 91 -14 49z"/>
<path d="M4912 3430 c0 -14 2 -19 5 -12 2 6 2 18 0 25 -3 6 -5 1 -5 -13z"/>
<path d="M4561 3388 c-1 -11 27 -117 34 -128 9 -14 25 -13 25 2 0 6 -8 21 -17
32 -9 12 8 -4 38 -35 30 -30 74 -71 99 -89 25 -19 47 -37 50 -40 3 -3 20 -16
38 -29 18 -13 31 -29 28 -36 -2 -7 4 -21 14 -30 17 -15 18 -15 22 1 3 15 8 14
38 -12 19 -16 45 -36 56 -44 12 -8 57 -43 100 -78 44 -35 103 -82 132 -105 30
-23 59 -47 65 -53 35 -31 179 -125 227 -147 102 -46 344 -147 354 -147 6 0
-70 46 -169 103 -99 57 -232 137 -295 178 -128 84 -401 286 -413 306 -4 7 -13
13 -20 13 -7 0 -30 16 -52 36 -22 20 -53 43 -70 51 -48 25 -95 64 -95 79 0 7
-6 11 -12 9 -13 -5 -143 114 -165 150 -6 11 -12 17 -12 13z"/>
<path d="M4851 3263 c0 -23 4 -45 9 -48 11 -7 11 16 0 60 -7 28 -8 28 -9 -12z"/>
<path d="M4660 3190 c13 -11 28 -20 34 -20 13 0 -35 39 -48 40 -5 0 1 -9 14
-20z"/>
<path d="M11280 2965 c-52 -18 -122 -40 -155 -49 -337 -88 -825 -234 -969
-290 -331 -130 -453 -168 -701 -221 -149 -32 -262 -63 -310 -84 -11 -5 -36
-12 -55 -15 -35 -6 -239 -62 -355 -97 -64 -19 -56 -26 10 -8 35 10 308 55 480
80 129 18 498 119 765 209 146 49 306 101 355 114 284 79 583 172 599 187 19
17 24 9 21 -34 l-3 -43 79 1 c85 1 106 9 68 24 -22 9 -21 10 14 10 21 1 40 7
42 14 3 7 24 13 49 13 24 1 58 9 76 18 18 9 41 16 51 16 10 0 21 10 25 23 10
29 5 109 -7 124 -7 8 -3 16 13 27 32 23 16 19 -92 -19z"/>
<path d="M4955 2858 c-3 -7 -3 -38 0 -68 3 -30 7 -65 8 -77 1 -11 6 -19 11
-16 4 3 5 -5 1 -17 -4 -14 -3 -20 2 -17 6 4 22 -18 37 -48 21 -44 32 -55 50
-55 13 0 26 -7 30 -15 7 -19 96 -21 114 -3 7 7 12 37 12 67 0 67 16 58 24 -14
2 -27 5 -51 5 -52 3 -11 41 2 66 22 l30 25 -23 16 c-18 12 -22 22 -17 41 6 26
-27 72 -52 73 -7 0 -13 8 -13 19 0 23 -56 37 -77 19 -16 -13 -33 3 -33 33 0
20 -36 58 -67 70 -35 13 -103 11 -108 -3z"/>
<path d="M10760 2840 c-18 -12 -2 -12 25 0 13 6 15 9 5 9 -8 0 -22 -4 -30 -9z"/>
<path d="M10930 2735 c0 -8 5 -15 10 -15 6 0 10 7 10 15 0 8 -4 15 -10 15 -5
0 -10 -7 -10 -15z"/>
<path d="M5643 2506 c32 -25 289 -153 377 -189 47 -19 117 -49 157 -66 92 -40
99 -39 40 3 -72 51 -255 140 -456 220 -118 47 -150 56 -118 32z"/>
<path d="M5970 2316 c0 -5 245 -143 380 -213 66 -35 151 -70 200 -83 46 -12
89 -28 95 -35 10 -13 133 -55 161 -55 19 0 18 26 -2 34 -9 3 -34 7 -57 7 -23
1 -55 5 -72 9 -18 5 6 6 58 3 56 -4 87 -2 87 5 0 15 -24 22 -99 28 -85 7 -203
45 -277 90 -64 39 -142 76 -254 122 -41 17 -94 40 -117 51 -23 12 -49 21 -57
21 -8 0 -18 5 -21 10 -6 10 -25 14 -25 6z"/>
<path d="M6880 2243 c0 -6 8 -17 18 -24 16 -13 16 -13 2 6 -8 11 -16 22 -17
24 -2 2 -3 0 -3 -6z"/>
<path d="M6345 2186 c17 -14 33 -25 38 -26 4 0 58 -25 119 -55 61 -30 123 -55
138 -55 14 0 31 -5 37 -11 6 -6 23 -9 39 -7 l29 4 -30 8 c-42 11 -68 22 -229
94 -178 80 -177 79 -141 48z"/>
<path d="M8596 2171 c-4 -5 3 -7 14 -4 23 6 26 13 6 13 -8 0 -17 -4 -20 -9z"/>
<path d="M6965 2120 c10 -11 20 -20 22 -20 2 0 -2 9 -9 20 -7 11 -17 20 -22
20 -5 0 -1 -9 9 -20z"/>
<path d="M8171 2069 c-35 -14 -225 -56 -359 -80 -88 -16 -175 -23 -354 -26
-224 -5 -279 -12 -208 -28 17 -4 30 -11 30 -15 0 -5 -21 -2 -47 6 -69 21 -83
23 -240 28 -146 5 -177 -2 -138 -30 17 -13 17 -15 2 -32 -19 -21 -22 -42 -6
-42 6 0 8 -9 4 -20 -10 -32 16 -80 42 -80 13 0 23 -6 23 -14 0 -8 8 -17 18
-22 20 -8 20 -8 51 1 23 7 23 7 7 -16 -16 -23 -22 -59 -10 -59 4 0 38 16 75
35 64 32 69 34 69 15 0 -25 3 -25 65 -1 51 19 51 19 52 -1 2 -27 8 -31 32 -23
23 7 29 40 9 48 -8 3 -6 6 5 6 9 1 17 8 17 16 0 9 7 18 15 22 18 6 50 68 60
113 9 43 27 37 21 -6 -5 -30 -3 -35 11 -32 13 3 18 13 17 36 -2 31 -1 32 42
32 152 0 787 141 769 171 -8 11 -42 11 -74 -2z m-1191 -178 c0 -5 -7 -11 -15
-15 -9 -3 -15 0 -15 9 0 8 7 15 15 15 8 0 15 -4 15 -9z m224 -10 c3 -5 -6 -14
-22 -19 -15 -5 -35 -13 -46 -18 -18 -7 -18 -6 -1 19 17 27 58 37 69 18z m80 3
c18 -7 12 -24 -10 -24 -8 0 -14 7 -14 15 0 17 2 18 24 9z"/>
<path d="M6846 1993 c-17 -18 2 -23 77 -22 53 0 73 3 57 8 -38 12 -127 21
-134 14z"/>
</g>
</svg>
